<svg id="Layer_1" data-name="Layer 1" xmlns="http://www.w3.org/2000/svg" xmlns:xlink="http://www.w3.org/1999/xlink" viewBox="0 0 1229.28 1483.67"><defs><style>.cls-1{fill:none;}.cls-2{font-size:258.35px;font-family:DolceVitaLight, Dolce Vita Light;}.cls-2,.cls-7{fill:#07726d;}.cls-3{font-size:116.09px;font-family:Streetvertising-Bold, Streetvertising;font-weight:700;letter-spacing:-0.01em;}.cls-3,.cls-6{fill:#721f54;}.cls-4{letter-spacing:-0.06em;}.cls-5{letter-spacing:0em;}.cls-8{clip-path:url(#clip-path);}</style><clipPath id="clip-path"><polygon class="cls-1" points="625.41 668.1 749.74 452.77 501.1 452.77 625.41 668.1"/></clipPath></defs><title>DATA CHALLENGE 356 FEM</title><text class="cls-2" transform="translate(147.46 1396.88) scale(1.21 1)">365 FEM</text><text class="cls-3" transform="translate(144.6 1177.47)">D<tspan class="cls-4" x="75.34" y="0">AT</tspan><tspan class="cls-5" x="201.76" y="0">A CHALLENGE</tspan></text><path class="cls-6" d="M625.42,43.42c-267.93,0-485.13,217.2-485.13,485.13s217.2,485.12,485.13,485.12,485.12-217.2,485.12-485.12S893.34,43.42,625.42,43.42Zm0,933.92c-247.87,0-448.8-200.93-448.8-448.79s200.93-448.8,448.8-448.8,448.79,200.93,448.79,448.8S873.28,977.34,625.42,977.34Z"/><circle class="cls-7" cx="902.91" cy="806.04" r="27.73"/><path class="cls-7" d="M625.42,139.78c21.86,0,43.21,9.94,63.44,29.54,20,19.38,38,47.23,53.54,82.79,15.64,35.82,27.92,77.56,36.51,124.07,8.91,48.25,13.43,99.51,13.43,152.37s-4.52,104.11-13.43,152.36C770.32,727.42,758,769.16,742.4,805c-15.53,35.56-33.54,63.42-53.54,82.79-20.23,19.6-41.58,29.54-63.44,29.54S582.2,907.37,562,887.77c-20-19.37-38-47.23-53.54-82.79-15.64-35.82-27.92-77.56-36.51-124.07-8.91-48.25-13.43-99.51-13.43-152.36S463,424.43,471.92,376.18c8.59-46.51,20.87-88.25,36.51-124.07C524,216.55,542,188.7,562,169.32c20.23-19.6,41.58-29.54,63.45-29.54m0-5c-95,0-171.93,176.3-171.93,393.77s77,393.76,171.93,393.76S797.34,746,797.34,528.55s-77-393.77-171.92-393.77Z"/><path class="cls-7" d="M832.12,229.65c29.33,0,52.27,8.08,68.19,24,15.46,15.46,23.53,37.58,24,65.74.44,27.85-6.52,60.29-20.69,96.41-14.26,36.38-35.09,74.58-61.91,113.55-27.82,40.41-60.87,79.86-98.24,117.23-54.91,54.9-114.94,100.94-173.61,133.14-56.9,31.22-109.15,47.72-151.12,47.72-29.33,0-52.28-8.08-68.2-24-15.46-15.46-23.53-37.58-24-65.74-.44-27.85,6.52-60.28,20.69-96.41,14.26-36.38,35.09-74.58,61.91-113.55C437,487.33,470,447.89,507.38,410.51c54.9-54.9,114.94-100.94,173.61-133.13,56.9-31.22,109.15-47.72,151.12-47.73h0m0-5c-85.9,0-214.07,68.13-328.26,182.33C350.07,560.75,279.84,739.84,347,807c17.28,17.28,42,25.46,71.74,25.46,85.9,0,214.07-68.13,328.26-182.32,153.78-153.78,224-332.87,156.87-400-17.28-17.28-42-25.46-71.74-25.46Z"/><path class="cls-7" d="M625.42,361.62c52.85,0,104.11,4.52,152.36,13.43,46.51,8.59,88.25,20.87,124.07,36.51,35.56,15.53,63.42,33.54,82.79,53.54,19.6,20.24,29.54,41.58,29.54,63.45s-9.94,43.21-29.54,63.44c-19.37,20-47.23,38-82.79,53.54C866,661.17,824.29,673.45,777.78,682c-48.25,8.91-99.51,13.43-152.36,13.43S521.3,691,473.05,682c-46.51-8.59-88.25-20.87-124.07-36.51C313.42,630,285.56,612,266.19,592c-19.6-20.23-29.54-41.58-29.54-63.44s9.94-43.21,29.54-63.45c19.37-20,47.23-38,82.79-53.54,35.82-15.64,77.56-27.92,124.07-36.51,48.25-8.91,99.51-13.43,152.37-13.43m0-5c-217.47,0-393.77,77-393.77,171.93S408,700.47,625.42,700.47s393.76-77,393.76-171.92S842.88,356.62,625.42,356.62Z"/><path class="cls-7" d="M418.73,229.65c42,0,94.22,16.51,151.11,47.73,58.67,32.19,118.7,78.23,173.61,133.13,37.37,37.38,70.42,76.82,98.24,117.23,26.82,39,47.65,77.17,61.91,113.55,14.17,36.13,21.13,68.56,20.69,96.41-.45,28.16-8.52,50.28-24,65.74-15.92,15.92-38.87,24-68.2,24-42,0-94.22-16.5-151.11-47.72-58.68-32.19-118.71-78.23-173.62-133.14C470,609.21,437,569.76,409.14,529.35c-26.82-39-47.65-77.17-61.91-113.55-14.17-36.12-21.13-68.56-20.69-96.41.45-28.16,8.52-50.28,24-65.74,15.92-15.92,38.87-24,68.21-24h0m0-5c-29.76,0-54.46,8.19-71.74,25.46-67.14,67.14,3.09,246.23,156.87,400,114.2,114.2,242.36,182.32,328.26,182.32,29.76,0,54.46-8.18,71.74-25.46C971,739.84,900.76,560.75,747,407,632.78,292.77,504.62,224.65,418.72,224.65Z"/><circle class="cls-7" cx="902.91" cy="251.05" r="27.73"/><circle class="cls-7" cx="347.92" cy="806.04" r="27.73"/><circle class="cls-7" cx="347.92" cy="251.05" r="27.73"/><path class="cls-6" d="M481.54,442.1,625.42,691.29,769.29,442.1Zm19.56,10H749.74L625.42,667.4Z"/><g class="cls-8"><path class="cls-6" d="M625.41,519.93c-43.36,0-78.51-12.59-78.51-28.12v28.75h0c.74,19.48,35.58,35.17,78.48,35.17S703.16,540,703.9,520.56h0V491.81C703.93,507.34,668.78,519.93,625.41,519.93Zm-60.57,11.71a4.23,4.23,0,1,1,4.23-4.23A4.23,4.23,0,0,1,564.84,531.64Zm11.74,4.23a4.23,4.23,0,1,1,4.23-4.23A4.22,4.22,0,0,1,576.58,535.87Zm11.35,3.6a4.23,4.23,0,1,1,4.23-4.23A4.23,4.23,0,0,1,587.93,539.47Z"/><path class="cls-6" d="M625.41,469.68c45.55,0,73.52,13.47,73.52,23.13s-28,23.12-73.52,23.12-73.51-13.47-73.51-23.12,28-23.13,73.51-23.13m0-5c-43.36,0-78.51,12.59-78.51,28.13s35.15,28.12,78.51,28.12,78.52-12.59,78.52-28.12-35.15-28.13-78.52-28.13Z"/><path class="cls-6" d="M625.41,563.6c-43.36,0-78.51-12.59-78.51-28.12v28.74h0c.74,19.49,35.58,35.18,78.49,35.18s77.74-15.69,78.48-35.18h0V535.48C703.93,551,668.78,563.6,625.41,563.6Zm-60.57,11.71a4.23,4.23,0,1,1,4.23-4.23A4.23,4.23,0,0,1,564.84,575.31Zm11.75,4.23a4.23,4.23,0,1,1,4.23-4.23A4.23,4.23,0,0,1,576.59,579.54Zm11.34,3.6a4.23,4.23,0,1,1,4.23-4.23A4.23,4.23,0,0,1,587.93,583.14Z"/><path class="cls-6" d="M553.35,532.49a33.45,33.45,0,0,0,26.49,13.11h91.63A34.86,34.86,0,0,0,697.81,533a6.61,6.61,0,0,1,1.12,3.47c0,9.65-28,23.12-73.51,23.12s-73.52-13.47-73.52-23.12a7.12,7.12,0,0,1,1.45-4m.89-7.89c-4.7,3.61-7.34,7.63-7.34,11.88,0,15.53,35.15,28.12,78.52,28.12s78.51-12.59,78.51-28.12c0-4.06-2.41-7.9-6.71-11.38-5.06,9.12-15.25,15.5-25.75,15.5H579.84a28.55,28.55,0,0,1-25.6-16Z"/><path class="cls-6" d="M625.41,607.52c-43.36,0-78.51-12.59-78.51-28.12v28.75h0c.74,19.48,35.58,35.17,78.48,35.17s77.74-15.69,78.48-35.17h0V579.4C703.92,594.93,668.77,607.52,625.41,607.52Zm-60.57,11.71a4.23,4.23,0,1,1,4.23-4.22A4.22,4.22,0,0,1,564.84,619.23Zm11.74,4.23a4.23,4.23,0,1,1,4.23-4.23A4.23,4.23,0,0,1,576.58,623.46Zm11.35,3.61a4.23,4.23,0,1,1,4.23-4.23A4.23,4.23,0,0,1,587.93,627.07Z"/><path class="cls-6" d="M553.35,576.42a33.48,33.48,0,0,0,26.49,13.11h91.63a34.87,34.87,0,0,0,26.34-12.6,6.63,6.63,0,0,1,1.12,3.47c0,9.66-28,23.12-73.52,23.12S551.9,590.06,551.9,580.4a7,7,0,0,1,1.45-4m.89-7.9c-4.7,3.61-7.34,7.64-7.34,11.88,0,15.53,35.15,28.12,78.51,28.12s78.52-12.59,78.52-28.12c0-4-2.41-7.9-6.71-11.38-5.07,9.12-15.25,15.51-25.75,15.51H579.84a28.55,28.55,0,0,1-25.6-16Z"/><path class="cls-6" d="M625.41,651.36c-43.36,0-78.51-12.59-78.51-28.12V652h0c.74,19.48,35.58,35.17,78.49,35.17S703.16,671.47,703.9,652h0V623.24C703.93,638.77,668.78,651.36,625.41,651.36Zm-60.57,11.71a4.23,4.23,0,1,1,4.23-4.23A4.23,4.23,0,0,1,564.84,663.07Zm11.75,4.23a4.23,4.23,0,1,1,4.23-4.23A4.23,4.23,0,0,1,576.59,667.3Zm11.34,3.61a4.23,4.23,0,1,1,4.23-4.23A4.24,4.24,0,0,1,587.93,670.91Z"/><path class="cls-6" d="M553.35,620.26a33.48,33.48,0,0,0,26.49,13.11h91.63a34.87,34.87,0,0,0,26.35-12.6,6.68,6.68,0,0,1,1.11,3.47c0,9.65-28,23.12-73.51,23.12s-73.52-13.47-73.52-23.12a7.06,7.06,0,0,1,1.45-4m.89-7.9c-4.7,3.61-7.34,7.63-7.34,11.88,0,15.53,35.15,28.12,78.52,28.12s78.51-12.59,78.51-28.12c0-4-2.41-7.9-6.71-11.38-5.06,9.12-15.25,15.51-25.75,15.51H579.84a28.56,28.56,0,0,1-25.6-16Z"/></g></svg>